<?xml version="1.0" encoding="utf-8"?>
<!-- Generator: Adobe Illustrator 17.0.0, SVG Export Plug-In . SVG Version: 6.00 Build 0)  -->
<!DOCTYPE svg PUBLIC "-//W3C//DTD SVG 1.1//EN" "http://www.w3.org/Graphics/SVG/1.1/DTD/svg11.dtd">
<svg version="1.1"
	 id="svg2" xmlns:cc="http://creativecommons.org/ns#" xmlns:svg="http://www.w3.org/2000/svg" xmlns:rdf="http://www.w3.org/1999/02/22-rdf-syntax-ns#" xmlns:dc="http://purl.org/dc/elements/1.1/" xmlns:inkscape="http://www.inkscape.org/namespaces/inkscape" xmlns:sodipodi="http://sodipodi.sourceforge.net/DTD/sodipodi-0.dtd" inkscape:version="0.48.2 r9819" sodipodi:docname="bitcoin-logo-noshadow.svg"
	 xmlns="http://www.w3.org/2000/svg" xmlns:xlink="http://www.w3.org/1999/xlink" x="0px" y="0px" width="1024px" height="1024px"
	 viewBox="0 0 1024 1024" enable-background="new 0 0 1024 1024" xml:space="preserve">
<g>
	<path fill="#00BDE8" d="M419.545,743.909c0,0,45.541,68.312,148.009,71.023c102.468,2.711,188.671-92.709,188.671-92.709
		s-135.539,16.265-162.105,16.807C578.472,739.349,531.772,752.583,419.545,743.909z"/>
	<linearGradient id="SVGID_1_" gradientUnits="userSpaceOnUse" x1="123.219" y1="507.1214" x2="963.9245" y2="507.1214">
		<stop  offset="0" style="stop-color:#049AEF"/>
		<stop  offset="1" style="stop-color:#01B0E7"/>
	</linearGradient>
	<path fill="url(#SVGID_1_)" d="M954.121,482.043c0.15,2.417,0.229,4.84,0.175,7.276c-2.173,99.127-173.218,175.775-382.04,171.199
		c-208.822-4.577-376.345-88.646-374.172-187.773c2.173-99.127,173.218-175.775,382.04-171.199
		c40.133,0.88-29.042,31.077,7.129,37.371c-42.309-10.68,19.78-44.497-28.081-47.952C327.18,274.223,132.13,357.427,123.514,476.807
		c-8.615,119.379,172.467,229.728,404.459,246.471c231.991,16.742,427.042-66.462,435.657-185.841
		C964.987,518.637,961.63,500.064,954.121,482.043z"/>
	<path fill="#00BDE8" d="M493.279,632.766c0,0-95.42-9.759-198.43-55.3c0,0-80.239-182.165,30.361-296.018
		c0,0,109.516-76.986,131.202-69.396C478.098,219.643,493.279,632.766,493.279,632.766z"/>
	<path fill="#00B7DD" d="M439.193,735.265C230.506,706.516,74.027,591.062,89.686,477.39c3.138-22.779,13.048-43.718,28.413-62.471
		c-34.58,28.759-55.489,63.329-57.809,101.425c-7.026,115.365,158.972,219.342,370.767,232.241
		c58.73,3.577,114.805-0.237,165.346-10.061C547.572,743.583,494.342,742.862,439.193,735.265z"/>
	<g>
		<defs>
			<path id="SVGID_2_" d="M456.412,209.5L325.21,261.297c-25.099,25.837-40.347,54.428-48.957,84.375
				c-48.247,28.977-77.282,65.307-78.168,105.771c-2.172,99.127,165.35,182.004,374.172,186.581
				c208.822,4.577,379.867-71.167,382.04-170.295c0.053-2.436-0.026-3.373-0.175-5.79C961.63,479.96,855.44,209.5,855.44,209.5
				H456.412z"/>
		</defs>
		<clipPath id="SVGID_3_">
			<use xlink:href="#SVGID_2_"  overflow="visible"/>
		</clipPath>
		<g clip-path="url(#SVGID_3_)">
			<linearGradient id="SVGID_4_" gradientUnits="userSpaceOnUse" x1="347.5295" y1="491.6909" x2="794.9675" y2="491.6909">
				<stop  offset="0" style="stop-color:#049AEF"/>
				<stop  offset="1" style="stop-color:#01B0E7"/>
			</linearGradient>
			<path fill="url(#SVGID_4_)" d="M782.959,503.846c-39.832-157.546-166.908-290.704-283.832-297.417
				c-116.925-6.713-179.421,115.561-139.589,273.106S526.445,770.239,643.37,776.953S822.791,661.392,782.959,503.846z"/>
		</g>
		<g clip-path="url(#SVGID_3_)">
			<linearGradient id="SVGID_5_" gradientUnits="userSpaceOnUse" x1="430.7363" y1="574.4491" x2="723.1194" y2="405.6416">
				<stop  offset="0" style="stop-color:#049AEF"/>
				<stop  offset="1" style="stop-color:#01B0E7"/>
			</linearGradient>
			<path fill="url(#SVGID_5_)" d="M760.151,500.653c-34.472-137.492-144.449-253.701-245.641-259.56
				c-101.192-5.859-155.278,100.851-120.807,238.343s144.449,253.701,245.641,259.56S794.623,638.146,760.151,500.653z"/>
			<path fill="#FFFFFF" d="M506.633,242.864c2.551,0,5.162,0.076,7.762,0.227c100.221,5.802,209.596,121.563,243.816,258.049
				c9.96,39.727,12.757,77.259,8.313,111.554c-4.224,32.599-15.169,60.995-31.649,82.118c-21.65,27.748-51.96,42.415-87.653,42.415
				c-2.551,0-5.162-0.076-7.762-0.227c-100.221-5.802-209.596-121.563-243.816-258.049c-9.96-39.727-12.757-77.259-8.313-111.554
				c4.224-32.599,15.169-60.995,31.649-82.118C440.63,257.531,470.94,242.864,506.633,242.864 M506.633,240.864
				c-96.1,0-146.496,104.69-112.929,238.574c34.472,137.492,144.449,253.701,245.641,259.56c2.656,0.154,5.287,0.23,7.878,0.23
				c96.1,0,146.496-104.69,112.929-238.574c-34.472-137.492-144.449-253.701-245.641-259.56
				C511.855,240.94,509.223,240.864,506.633,240.864L506.633,240.864z"/>
		</g>
		<g clip-path="url(#SVGID_3_)">
			<g>
				<path fill="#FEFCFD" d="M542.615,538.431c7.59,20.06,22.605,44.618,56.384,42.288c15.723-1.084,15.844-15.204,2.169-46.625
					l-81.324-184.876l87.239,0.527l87.074,200.074c13.499,31.017,14.086,54.983,2.056,72.756
					c-12.022,17.789-35.062,26.457-68.461,26.457s-67.391-3.355-94.897-21.144c-27.499-17.772-47.168-30.903-72.649-89.456H542.615z
					"/>
			</g>
		</g>
	</g>
	<g display="none">
		<defs>
			<path id="SVGID_6_" d="M419.545,743.909c0,0,45.541,68.312,148.009,71.023c102.468,2.711,188.671-92.709,188.671-92.709
				s-135.539,16.265-162.105,16.807C578.472,739.349,531.772,752.583,419.545,743.909z"/>
		</defs>
		<clipPath id="SVGID_7_" display="inline">
			<use xlink:href="#SVGID_6_"  overflow="visible"/>
		</clipPath>
		<g display="inline" clip-path="url(#SVGID_7_)">
			<path fill="#078DF0" d="M782.959,503.846c-39.832-157.546-166.908-290.704-283.832-297.417
				c-116.925-6.713-179.421,115.561-139.589,273.106S526.445,770.239,643.37,776.953S822.791,661.392,782.959,503.846z"/>
		</g>
	</g>
</g>
</svg>
