<?xml version="1.0" encoding="utf-8"?>
<!-- Generator: Adobe Illustrator 17.0.0, SVG Export Plug-In . SVG Version: 6.00 Build 0)  -->
<!DOCTYPE svg PUBLIC "-//W3C//DTD SVG 1.1//EN" "http://www.w3.org/Graphics/SVG/1.1/DTD/svg11.dtd">
<svg version="1.1" id="Ebene_1" xmlns="http://www.w3.org/2000/svg" xmlns:xlink="http://www.w3.org/1999/xlink" x="0px" y="0px"
	 width="68px" height="68px" viewBox="0 0 68 68" enable-background="new 0 0 68 68" xml:space="preserve">
<path d="M34,13.29c-11.419,0-20.71,9.29-20.71,20.709c0,11.419,9.29,20.71,20.71,20.71S54.71,45.419,54.71,34
	C54.71,22.581,45.419,13.29,34,13.29z M41.766,36.589H34c-1.43,0-2.589-1.158-2.589-2.589v-7.766c0-1.431,1.159-2.589,2.589-2.589
	c1.43,0,2.589,1.158,2.589,2.589v5.177h5.177c1.43,0,2.589,1.158,2.589,2.589S43.196,36.589,41.766,36.589z"/>
</svg>
