<?xml version="1.0" encoding="utf-8"?>
<!-- Generator: Adobe Illustrator 17.0.0, SVG Export Plug-In . SVG Version: 6.00 Build 0)  -->
<!DOCTYPE svg PUBLIC "-//W3C//DTD SVG 1.1//EN" "http://www.w3.org/Graphics/SVG/1.1/DTD/svg11.dtd">
<svg version="1.1" id="Ebene_1" xmlns="http://www.w3.org/2000/svg" xmlns:xlink="http://www.w3.org/1999/xlink" x="0px" y="0px"
	 width="68px" height="68px" viewBox="0 0 68 68" enable-background="new 0 0 68 68" xml:space="preserve">
<g>
	<path d="M34,40.506c-3.076,0-5.579,2.503-5.579,5.579s2.503,5.579,5.579,5.579s5.579-2.503,5.579-5.579S37.076,40.506,34,40.506z
		 M34,50.174c-2.255,0-4.089-1.834-4.089-4.089c0-2.255,1.834-4.089,4.089-4.089c2.255,0,4.089,1.834,4.089,4.089
		C38.089,48.34,36.255,50.174,34,50.174z"/>
	<path d="M34,26.004c-11.073,0-20.082,9.007-20.082,20.079c0,1.744,1.418,3.162,3.162,3.162s3.162-1.418,3.162-3.162
		c0-7.583,6.171-13.753,13.757-13.753s13.757,6.17,13.757,13.753c0,1.744,1.419,3.162,3.162,3.162c1.744,0,3.162-1.418,3.162-3.162
		C54.082,35.011,45.073,26.004,34,26.004z M50.92,47.755c-0.922,0-1.672-0.75-1.672-1.672c0-8.405-6.84-15.243-15.248-15.243
		c-8.408,0-15.248,6.838-15.248,15.243c0,0.922-0.75,1.672-1.672,1.672s-1.672-0.75-1.672-1.672c0-10.25,8.34-18.589,18.591-18.589
		s18.591,8.339,18.591,18.589C52.591,47.006,51.841,47.755,50.92,47.755z"/>
	<path d="M34,16.336c-16.404,0-29.75,13.345-29.75,29.748c0,1.744,1.419,3.162,3.162,3.162c1.744,0,3.162-1.418,3.162-3.162
		C10.575,33.168,21.083,22.66,34,22.66c12.917,0,23.425,10.508,23.425,23.423c0,1.744,1.418,3.162,3.162,3.162
		s3.162-1.418,3.162-3.162C63.75,29.68,50.404,16.336,34,16.336z M60.588,47.755c-0.922,0-1.672-0.75-1.672-1.672
		C58.916,32.346,47.739,21.17,34,21.17S9.084,32.346,9.084,46.083c0,0.922-0.75,1.672-1.672,1.672c-0.922,0-1.672-0.75-1.672-1.672
		c0-15.581,12.677-28.257,28.259-28.257c15.582,0,28.259,12.677,28.259,28.257C62.259,47.006,61.509,47.755,60.588,47.755z"/>
</g>
</svg>
