<?xml version="1.0" encoding="utf-8"?>
<!-- Generator: Adobe Illustrator 17.0.0, SVG Export Plug-In . SVG Version: 6.00 Build 0)  -->
<!DOCTYPE svg PUBLIC "-//W3C//DTD SVG 1.1//EN" "http://www.w3.org/Graphics/SVG/1.1/DTD/svg11.dtd">
<svg version="1.1" id="Ebene_1" xmlns="http://www.w3.org/2000/svg" xmlns:xlink="http://www.w3.org/1999/xlink" x="0px" y="0px"
	 width="68px" height="68px" viewBox="0 0 68 68" enable-background="new 0 0 68 68" xml:space="preserve">
<path d="M52.831,15.564c-2.205-0.202-4.604-0.598-6.809-1.002c-5.815-1.002-11.421-1.801-17.244-2.803
	c-2.803-0.396-5.807-1.002-8.812-0.598c-1.397,0.194-2.601,0.598-3.602,1.599c-1.195,1.203-1.599,2.811-1.599,4.41
	c0,5.807,0,11.817,0,17.826c0,0.404,0,0.808,0.218,1.195c0,5.807,0,11.623,0,17.43c0,0.202,0,0.598,0.202,0.8
	c0.8,0.8,1.599,1.599,2.601,2.803c0.194,0.202,0.396,0.202,0.598,0.202c4.604-0.808,9.216-1.607,13.82-2.407
	c5.605-1.002,11.219-1.801,16.824-2.803c1.405-0.404,2.407-1.002,3.207-2.205c0.598-1.195,1.002-2.399,1.002-3.602
	c0-2.803,0-5.412,0-8.012c0-7.407,0-14.619,0-22.034C53.235,15.968,53.429,15.564,52.831,15.564z M45.862,37.09
	c-0.035,2.459-0.848,4.437-2.472,6.023c-1.661,1.624-3.952,2.599-6.886,2.94c-3.043,0.354-6.111,0.417-7.997-0.943
	c-1.926-1.387-3.31-2.437-3.174-7.704l7.996-0.474c-0.142,1.726,0.214,3.802,3.375,3.346c1.43-0.206,1.998-1.422,2.045-4.026
	l0.202-15.17l7.136,0.307L45.862,37.09z"/>
</svg>
