<?xml version="1.0" encoding="utf-8"?>
<!-- Generator: Adobe Illustrator 17.0.0, SVG Export Plug-In . SVG Version: 6.00 Build 0)  -->
<!DOCTYPE svg PUBLIC "-//W3C//DTD SVG 1.1//EN" "http://www.w3.org/Graphics/SVG/1.1/DTD/svg11.dtd">
<svg version="1.1" id="Ebene_1" xmlns="http://www.w3.org/2000/svg" xmlns:xlink="http://www.w3.org/1999/xlink" x="0px" y="0px"
	 width="68px" height="68px" viewBox="0 0 68 68" enable-background="new 0 0 68 68" xml:space="preserve">
<g>
	<path d="M54.082,23.824c-4.042-4.044-9.413-6.268-15.124-6.268c-1.724,0.106-3.162,1.399-3.16,3.139
		c0.002,1.73,1.406,3.133,3.136,3.133c0.008-0.006,0.015,0,0.025,0c4.036,0,7.831,1.574,10.69,4.431
		c2.857,2.857,4.431,6.657,4.431,10.699c0,4.039-1.574,7.839-4.431,10.696c-5.899,5.898-15.501,5.898-21.397,0
		c-2.912-2.912-4.485-6.786-4.428-10.907c0.023-1.73-1.361-3.154-3.093-3.179c-1.592-0.073-3.154,1.36-3.179,3.093
		c-0.08,5.83,2.145,11.309,6.265,15.427c4.172,4.171,9.652,6.256,15.132,6.256c5.481,0,10.961-2.085,15.133-6.256
		c4.042-4.042,6.268-9.416,6.268-15.13C60.35,33.241,58.124,27.866,54.082,23.824z"/>
	<path d="M13.003,8.575c-0.612-0.612-1.415-0.919-2.217-0.919S9.181,7.962,8.569,8.575c-1.225,1.225-1.225,3.209,0,4.434
		l14.375,14.374h-1.535c-1.732,0-3.136,1.404-3.136,3.136c0,1.732,1.404,3.136,3.136,3.136h9.105c0.206,0,0.411-0.022,0.614-0.062
		c0.094-0.019,0.18-0.054,0.271-0.08c0.105-0.031,0.212-0.055,0.314-0.098c0.108-0.045,0.206-0.106,0.308-0.162
		c0.077-0.042,0.157-0.076,0.231-0.125c0.344-0.23,0.64-0.526,0.87-0.87c0.049-0.074,0.083-0.154,0.125-0.231
		c0.056-0.102,0.117-0.2,0.162-0.308c0.042-0.102,0.067-0.209,0.098-0.314c0.027-0.091,0.062-0.177,0.08-0.271
		c0.04-0.203,0.062-0.408,0.062-0.614l0,0v-9.105c0-1.732-1.404-3.134-3.136-3.134c-1.732,0-3.136,1.402-3.136,3.134v1.536
		L13.003,8.575z"/>
</g>
</svg>
