<?xml version="1.0" encoding="utf-8"?>
<!-- Generator: Adobe Illustrator 17.0.0, SVG Export Plug-In . SVG Version: 6.00 Build 0)  -->
<!DOCTYPE svg PUBLIC "-//W3C//DTD SVG 1.1//EN" "http://www.w3.org/Graphics/SVG/1.1/DTD/svg11.dtd">
<svg version="1.1" id="Ebene_1" xmlns="http://www.w3.org/2000/svg" xmlns:xlink="http://www.w3.org/1999/xlink" x="0px" y="0px"
	 width="68px" height="68px" viewBox="0 0 68 68" enable-background="new 0 0 68 68" xml:space="preserve">
<g>
	<path d="M54.082,23.818c-4.042-4.044-9.415-6.268-15.13-6.268c-0.006,0-0.014,0-0.021,0c-1.732,0.002-3.134,1.407-3.133,3.139
		c0.002,1.73,1.406,3.133,3.136,3.133c0.005,0.002,0.012,0,0.018,0c4.041,0,7.838,1.574,10.696,4.431
		c5.899,5.899,5.899,15.498,0,21.397c-2.857,2.857-6.657,4.431-10.698,4.431s-7.841-1.574-10.698-4.431
		c-2.914-2.914-4.486-6.787-4.429-10.907c0.023-1.732-1.361-3.154-3.093-3.179c-0.014,0-0.029,0-0.044,0
		c-1.71,0-3.11,1.375-3.134,3.093c-0.08,5.827,2.145,11.306,6.267,15.427c4.041,4.042,9.415,6.268,15.132,6.268
		c5.717,0,11.091-2.226,15.132-6.268c4.042-4.042,6.268-9.416,6.268-15.133C60.35,33.234,58.124,27.86,54.082,23.818z"/>
	<path d="M22.944,27.379h-1.538c-1.732,0-3.136,1.404-3.136,3.136c0,1.732,1.404,3.136,3.136,3.136h9.107
		c0.206,0,0.411-0.022,0.614-0.062c0.094-0.019,0.18-0.054,0.271-0.08c0.105-0.031,0.212-0.055,0.314-0.097
		c0.108-0.045,0.206-0.106,0.308-0.162c0.077-0.042,0.157-0.076,0.231-0.125c0.344-0.23,0.64-0.526,0.87-0.87
		c0.05-0.075,0.084-0.156,0.127-0.233c0.056-0.101,0.117-0.199,0.161-0.306c0.042-0.102,0.067-0.209,0.098-0.314
		c0.027-0.091,0.062-0.177,0.08-0.271c0.04-0.203,0.062-0.408,0.062-0.614v-9.107c0-1.732-1.404-3.136-3.136-3.136
		c-1.732,0-3.136,1.404-3.136,3.136v1.537l-9.023-9.024h1.538c1.732,0,3.136-1.404,3.136-3.136c0-1.732-1.404-3.136-3.136-3.136
		h-9.107c-0.206,0-0.411,0.022-0.614,0.062c-0.094,0.019-0.18,0.054-0.271,0.08C9.796,7.822,9.689,7.847,9.587,7.889
		C9.479,7.934,9.38,7.995,9.279,8.051C9.202,8.094,9.122,8.127,9.048,8.177c-0.344,0.23-0.64,0.526-0.87,0.87
		C8.128,9.12,8.095,9.201,8.052,9.277C7.996,9.379,7.935,9.478,7.89,9.586C7.848,9.688,7.823,9.794,7.792,9.899
		c-0.027,0.091-0.062,0.178-0.081,0.272c-0.04,0.203-0.062,0.408-0.062,0.614v9.107c0,1.732,1.404,3.136,3.136,3.136
		c1.732,0,3.136-1.404,3.136-3.136v-1.537L22.944,27.379z"/>
</g>
</svg>
