<?xml version="1.0" encoding="utf-8"?>
<!-- Generator: Adobe Illustrator 17.0.0, SVG Export Plug-In . SVG Version: 6.00 Build 0)  -->
<!DOCTYPE svg PUBLIC "-//W3C//DTD SVG 1.1//EN" "http://www.w3.org/Graphics/SVG/1.1/DTD/svg11.dtd">
<svg version="1.1" id="Ebene_1" xmlns="http://www.w3.org/2000/svg" xmlns:xlink="http://www.w3.org/1999/xlink" x="0px" y="0px"
	 width="68px" height="68px" viewBox="0 0 68 68" enable-background="new 0 0 68 68" xml:space="preserve">
<g>
	<path d="M31.037,34.793l0.779-0.779c1.403,0.735,2.993,1.107,4.737,1.107c5.804,0,10.527-4.725,10.527-10.533
		c0-5.805-4.722-10.527-10.527-10.527s-10.527,4.722-10.527,10.527c0,1.67,0.38,3.27,1.111,4.725l-11.369,11.37
		c-0.423,0.424-0.685,1.046-0.685,1.622c0,0.579,0.261,1.202,0.685,1.63l1.439,1.443c0.84,0.836,2.403,0.845,3.255-0.005l0.87-0.874
		l0.875,0.879c0.459,0.456,0.992,0.678,1.628,0.678c0.634,0,1.165-0.222,1.624-0.681l1.44-1.439
		c0.443-0.444,0.685-1.023,0.685-1.631c-0.001-0.608-0.245-1.186-0.686-1.625l-0.875-0.871l0.325-0.325l0.873,0.874
		c0.883,0.879,2.37,0.878,3.252-0.001l1.44-1.436c0.442-0.441,0.686-1.021,0.686-1.629c0-0.607-0.243-1.185-0.686-1.629
		L31.037,34.793z M23.835,44.774l-0.003-1.284c0.001,0,0.001,0,0.003,0h0.001c0.001,0,0.001,0,0.002,0L23.835,44.774z
		 M30.405,31.795l-1.746,1.745c-0.682,0.706-0.681,1.808,0.016,2.524l1.234,1.23l-1.062,1.059l-1.231-1.232
		c-0.684-0.685-1.851-0.683-2.533-0.001l-1.424,1.422c-0.342,0.342-0.53,0.792-0.53,1.269c0,0.475,0.188,0.925,0.531,1.269
		l1.234,1.231l-1.063,1.062l-1.233-1.239c-0.342-0.341-0.792-0.528-1.267-0.528c-0.476,0-0.927,0.188-1.271,0.533l-1.228,1.234
		l-1.059-1.062l11.572-11.572c0.579-0.577,0.708-1.387,0.311-2.16c-0.714-1.258-1.061-2.561-1.061-3.989
		c0-4.463,3.496-7.959,7.959-7.959s7.959,3.496,7.959,7.959c0,4.392-3.57,7.965-7.959,7.965c-1.498,0-2.827-0.351-4.043-1.096
		c-0.271-0.138-0.553-0.208-0.838-0.208C31.344,31.249,30.858,31.343,30.405,31.795z"/>
	<path d="M36.553,29.707c2.871,0,5.119-2.248,5.119-5.119s-2.249-5.12-5.119-5.12c-2.871,0-5.12,2.249-5.12,5.12
		S33.682,29.707,36.553,29.707z M36.553,22.035c1.431,0,2.551,1.121,2.551,2.553c0,1.431-1.121,2.551-2.551,2.551
		c-1.431,0-2.552-1.121-2.552-2.551C34.001,23.156,35.122,22.035,36.553,22.035z"/>
	<path d="M51.839,39.612c-0.697-0.697-1.623-1.08-2.607-1.08c-0.985,0-1.911,0.384-2.607,1.08l-5.424,5.424l-2.257-2.256
		c-0.696-0.696-1.622-1.08-2.607-1.08s-1.911,0.384-2.607,1.08c-1.438,1.438-1.438,3.777,0,5.215l4.865,4.863
		c0.696,0.696,1.622,1.08,2.607,1.08s1.911-0.384,2.607-1.08l8.031-8.031C53.276,43.389,53.276,41.05,51.839,39.612z M50.023,43.011
		l-8.031,8.031c-0.219,0.219-0.505,0.328-0.792,0.328c-0.287,0-0.573-0.109-0.792-0.328l-4.864-4.862
		c-0.437-0.437-0.437-1.146,0-1.584c0.219-0.219,0.505-0.328,0.792-0.328c0.286,0,0.573,0.109,0.792,0.328l4.072,4.07l7.24-7.24
		c0.219-0.219,0.505-0.328,0.792-0.328c0.287,0,0.573,0.109,0.792,0.328C50.461,41.865,50.461,42.574,50.023,43.011z"/>
</g>
</svg>
